<?xml version="1.0" encoding="UTF-8" standalone="no"?> <svg xmlns="http://www.w3.org/2000/svg" viewBox="0 0 64 64"><g id="Circuit-technology-electronics"><rect x="4" y="3" width="58" height="58" style="fill:#007579"/><path d="M39,54H35.722a2,2,0,1,0,0,2H39Z" style="fill:#009698"/><path d="M56,53a1.993,1.993,0,0,0-1.722,1H51v2h3.278A2,2,0,1,0,56,53Z" style="fill:#009698"/><path d="M62,20H56.722a2,2,0,1,0,0,2H62Z" style="fill:#009698"/><rect x="17" y="34" width="3" height="3" style="fill:#78b9eb"/><rect x="17" y="21" width="3" height="3" style="fill:#78b9eb"/><rect x="17" y="27" width="3" height="3" style="fill:#78b9eb"/><rect x="17" y="40" width="3" height="3" style="fill:#78b9eb"/><path d="M16,54a2,2,0,0,0-1.721,1H10.535L9,52.7V48.721a2,2,0,1,0-2,0V53a1.006,1.006,0,0,0,.168.555l2,3A1,1,0,0,0,10,57h4.279A2,2,0,1,0,16,54Z" style="fill:#009698"/><rect x="44" y="34" width="3" height="3" style="fill:#78b9eb"/><rect x="44" y="40" width="3" height="3" style="fill:#78b9eb"/><rect x="44" y="27" width="3" height="3" style="fill:#78b9eb"/><rect x="44" y="21" width="3" height="3" style="fill:#78b9eb"/><path d="M49,52a3,3,0,0,1,0,6H41a3,3,0,0,1,0-6Z" style="fill:#ff9811"/><rect x="34" y="17" width="3" height="3" style="fill:#78b9eb"/><rect x="40" y="17" width="3" height="3" style="fill:#78b9eb"/><rect x="27" y="17" width="3" height="3" style="fill:#78b9eb"/><rect x="21" y="17" width="3" height="3" style="fill:#78b9eb"/><path d="M9,22.279V9.721a2,2,0,1,0-2,0V22.279a2,2,0,1,0,2,0Z" style="fill:#009698"/><rect x="14" y="6" width="4" height="8" style="fill:#ff5023"/><rect x="47" y="6" width="8" height="3" style="fill:#ffda44"/><rect x="47" y="12" width="8" height="3" style="fill:#ffda44"/><rect x="20" y="20" width="24" height="24" style="fill:#3e3d42"/><path d="M20,20H44a0,0,0,0,1,0,0v1.617A22.383,22.383,0,0,1,21.617,44H20a0,0,0,0,1,0,0V20A0,0,0,0,1,20,20Z" style="fill:#57565c"/><rect x="21" y="17" width="3" height="3" style="fill:#e0e0e2"/><rect x="27" y="17" width="3" height="3" style="fill:#e0e0e2"/><rect x="34" y="17" width="3" height="3" style="fill:#e0e0e2"/><rect x="40" y="17" width="3" height="3" style="fill:#e0e0e2"/><rect x="44" y="21" width="3" height="3" style="fill:#e0e0e2"/><rect x="44" y="27" width="3" height="3" style="fill:#e0e0e2"/><rect x="44" y="34" width="3" height="3" style="fill:#e0e0e2"/><rect x="44" y="40" width="3" height="3" style="fill:#e0e0e2"/><rect x="34" y="44" width="3" height="3" style="fill:#e0e0e2"/><rect x="40" y="44" width="3" height="3" style="fill:#e0e0e2"/><rect x="27" y="44" width="3" height="3" style="fill:#e0e0e2"/><rect x="21" y="44" width="3" height="3" style="fill:#e0e0e2"/><rect x="17" y="40" width="3" height="3" style="fill:#e0e0e2"/><rect x="17" y="34" width="3" height="3" style="fill:#e0e0e2"/><rect x="17" y="27" width="3" height="3" style="fill:#e0e0e2"/><rect x="17" y="21" width="3" height="3" style="fill:#e0e0e2"/><circle cx="24" cy="24" r="1" style="fill:#ff5023"/><path d="M54,35.722V45H52.722a2,2,0,1,0,0,2H55a1,1,0,0,0,1-1V35.722a2,2,0,1,0-2,0Z" style="fill:#009698"/><path d="M24,10a1.993,1.993,0,0,0,1.722-1h7.556a2,2,0,1,0,0-2H25.722A2,2,0,1,0,24,10Z" style="fill:#009698"/><rect x="21" y="44" width="3" height="1" style="fill:#c6c5ca"/><rect x="27" y="44" width="3" height="1" style="fill:#c6c5ca"/><rect x="34" y="44" width="3" height="1" style="fill:#c6c5ca"/><rect x="40" y="44" width="3" height="1" style="fill:#c6c5ca"/><rect x="37" y="44" width="3" height="1" style="fill:#006468"/><rect x="43" y="44" width="1" height="1" style="fill:#006468"/><rect x="30" y="44" width="4" height="1" style="fill:#006468"/><rect x="24" y="44" width="3" height="1" style="fill:#006468"/><rect x="20" y="44" width="1" height="1" style="fill:#006468"/><rect x="40" y="53" width="5" height="1" style="fill:#ffad41"/></g></svg>